<?xml version="1.0" standalone="no"?><!DOCTYPE svg PUBLIC "-//W3C//DTD SVG 1.1//EN" "http://www.w3.org/Graphics/SVG/1.1/DTD/svg11.dtd"><svg class="icon" height="512" viewBox="0 0 1024 1024" version="1.1" xmlns="http://www.w3.org/2000/svg"><path d="M902.436852 394.774135c2.687202-45.610804 4.738931-110.465904 0.316202-167.307494-6.864338-87.315648-27.707039-136.50086-65.526389-154.777109-12.392238-6.03853-25.971511-9.079796-40.261982-9.079796-75.076906 0-148.895145 84.23652-188.68436 138.593522-63.551408-12.277628-130.896212-12.277628-194.368826 0C374.122281 147.84728 300.308135 63.609737 225.227136 63.609737c-14.369266 0-27.866674 3.041266-40.340777 9.079796-37.817304 18.276249-58.57814 67.461461-65.448618 154.777109-4.497431 56.899918-2.445702 121.736599 0.23843 167.307494-34.975583 56.013735-53.449329 119.229498-53.449329 183.077665 0 212.273614 199.579501 384.931976 444.869067 384.931976 245.288542 0 444.868043-172.658362 444.868043-384.931976C955.963952 514.004657 937.489182 450.788893 902.436852 394.774135zM319.569828 595.242889c-31.263028 0-56.606229-25.344225-56.606229-56.607252 0-3.431146 0.316202-6.78759 0.946558-10.102079-21.156856-14.190187-31.737842-40.402175-31.737842-40.402175 9.713222 11.348466 26.924209 16.242939 40.896432 18.3356 10.184967-14.763239 27.238364-24.414039 46.50108-24.414039 31.264051 0 56.603159 25.342178 56.603159 56.582693C376.172987 569.898665 350.834902 595.242889 319.569828 595.242889zM631.885949 708.810435c-9.55461 37.063127-34.500768 58.340733-68.449975 58.340733-29.602202 0-47.841611-19.383466-57.471946-37.893029-12.31549 24.353664-33.708729 37.893029-60.789505 37.893029-41.685401 0-60.789505-38.405705-65.053622-58.696844-0.947582-4.422729 1.895163-8.723685 6.314823-9.671267 4.421706-0.931209 8.765641 1.895163 9.713222 6.317892 0.391926 1.852184 10.262738 45.709041 49.024553 45.709041 30.592762 0 44.537356-20.642133 50.928926-40.155559-22.245653-3.975545-39.006386-21.014616-39.006386-41.419342 0-23.347754 21.947871-42.293245 48.947805-42.293245 26.999934 0 48.947805 18.945491 48.947805 42.293245 0 20.431332-16.804734 37.490869-39.092343 41.434691 4.002151 12.222369 16.537651 40.140209 47.535643 40.140209 33.633005 0 47.211255-25.065885 52.579519-46.067198 1.186012-4.380774 5.606695-6.988158 9.946536-5.878894C630.383736 700.003861 632.99112 704.426591 631.885949 708.810435zM758.20389 528.532535c0.63138 3.314489 0.947582 6.671956 0.947582 10.102079 0 31.264051-25.345248 56.607252-56.607252 56.607252-31.265074 0-56.603159-25.344225-56.603159-56.607252 0-31.240515 25.339108-56.582693 56.603159-56.582693 19.343557 0 36.31509 9.651824 46.579875 24.414039 13.974269-2.092661 31.184233-6.987135 40.815591-18.3356C789.937638 488.13036 779.358699 514.342348 758.20389 528.532535z" /></svg>